<svg xmlns="http://www.w3.org/2000/svg" width="119.347" height="133.741" viewBox="0 0 119.347 133.741">
  <g id="dragon" transform="translate(-2.278 0)">
    <path id="Trazado_1" data-name="Trazado 1" d="M93,70.309c1.068.351.363-1.721-1.573-4.627l-1.172-1.766c-1.933-2.9-2.751-5.174-1.829-5.073S88.4,57.612,86.3,55.865s-3.146-3.3-2.347-3.462-1.143-1.434-4.318-2.881C73.572,46.759,67.763,43.7,63.9,38.553a5.778,5.778,0,0,1-1.222-4.267c.43-2.476,2.814-3.25,3.225-2.694l.749,1c1.481,2.344,4,4.141,9.305,4.472,3.459.3,5.6,2.277,7.6,4.46A7.238,7.238,0,0,0,86.5,43.392c1.873.534,2.8-.878,2.075-1.308s-3.345-1.466-2.562-3.013,2.659-3.566,2.8-5.06-2.123-2.789-3.108-3.572l-1.788-1.415a4.941,4.941,0,0,0-1.864-.736,17.623,17.623,0,0,1-3.689-1.554c-1.172-.55-3.882-.692-3.73-1.718.047-.328.682-.657,1.538-.985a7.657,7.657,0,0,1,6.181.6c1.7,1.1,4.065,1.44,6.538,1.829,3.449.54,6.9,1.257,7.577.559s.919-3.651.919-6.323-2.824-4.027-6.279-4.5c-7.189-.976-8.8-7.363-12.05-11.791-2.066-2.811-4.308-1.567-6-1.014-.695.227-1.7-.111-2.982-.941-.919-.7-1.832-1.393-2.745-1.971-1.576-1-.613,2.006-3.013,2.694S59.387.076,57.741,0s-.723.954.344,2.707c.733,1.2.325,2.5-1.636,1.977a11.606,11.606,0,0,0-5.152.139c-2.77.745-3.474,2.549-2.179,2.653s4.144.322,5.013,1.911c.543.992.082,1.958-1.769,1.62a4.625,4.625,0,0,0-2.9.512c-1.434.828-.231.891,1.292,1.971.613.436.395,1.443-.894,2.915-16.105,18.386,9.776,32.662,16.99,50.78,1.292,3.241.18,3.648-1.762.749C46.857,40.749,26.617,36.143,4.773,49.624,1.8,51.456,2.341,52.738,5.812,52.366a29.774,29.774,0,0,1,9.245.183c3.44,1.02,6.469,2.173,3.967,3.7C12.96,59.817,6,63.351,3.313,67.088c-2.04,2.83-.856,2.473,1.737.139,2.4-2.16,6.718-3.522,11.908-4.523,3.427-.66,7.517-1.7,9.236-1.8,1.352-.079,1.683.635,1.061,2.091-.862,1.92-1.63,3.844-2.328,5.767-1.175,3.228.095,3.958,2.969,1.977,33.983-23.392,52.82,38.4,22.432,22.956-3.111-1.579-4.166-.647-1.86,1.968,12.789,14.536,33.168-.038,29.3-26.724-.5-3.452.177-3.74,1.424-.48a35.306,35.306,0,0,1-2.858,31.525c-3.07,6.143-21.3,16.554-7.34,32.138,2.328,2.6,3.064,1.952,1.383-1.109-3.62-6.6-4.962-12.325,3.838-18.5,6.557-3.891,13.4-12.454,16.1-26.02.685-3.418,2.46-3.812,3.244-.414a46.449,46.449,0,0,1,.932,7c.253,3.484.723,3.484.771-.006a60.472,60.472,0,0,0-2.135-17.435C92.185,72.283,91.939,69.959,93,70.309ZM73.322,8.111a2.631,2.631,0,1,1-2.631,2.631A2.631,2.631,0,0,1,73.322,8.111Z" transform="translate(0 0)" fill="#fff"/>
    <path id="Trazado_2" data-name="Trazado 2" d="M59.705,25.745a13.133,13.133,0,0,1-2.189-.7c-3.209-1.374-1.241-4.425-3.462-7.119-.174-.208-.338-.42-.505-.635-2.135-2.754-4.757-1.194-7.527-3.313a13.292,13.292,0,0,1-1.235-1.09c-2.486-2.445-6.071-2.186-9.529-2.641-.878-.117-1.819-.3-2.792-.505-3.411-.733-3.876.3-.919,2.157a57.026,57.026,0,0,1,6.762,4.659c2.622,2.3,2.8,6.121,4.479,5.171s4.371-1.017,6.538,1.715C52,26.813,55.211,30.521,60.5,28.951,63.852,27.956,63.113,26.529,59.705,25.745Z" transform="translate(58.955 20.515)" fill="#fff"/>
  </g>
</svg>
