<svg xmlns="http://www.w3.org/2000/svg" width="102.906" height="85.595" viewBox="0 0 102.906 85.595">
  <path id="mono" d="M101.576,60.285c-.312-.161-.647-.278-.963-.432q-3.15-1.546-6.294-3.1c-.017-.009-.022-.039-.048-.088.252-.2.507-.4.765-.6a.522.522,0,0,0,.214-.635,8.588,8.588,0,0,1-.435-.98c-.186-.746-.839-1.011-1.37-1.369A18,18,0,0,0,91.7,52.2a9.7,9.7,0,0,1-1.035-.623c-.746-.518-1.459-1.084-2.219-1.578a7,7,0,0,0-3.631-1.016c-.4-.016-.8-.1-1.2-.147H82.55a1.348,1.348,0,0,1-.175.064c-1.04.234-2.1.415-3.118.711a6.636,6.636,0,0,0-3.843,2.6,4.517,4.517,0,0,0-.413.957,4.817,4.817,0,0,1-.248.786,17.527,17.527,0,0,1-1.036,1.538c-.785,1.047-2.03,1.652-2.718,2.8a14.753,14.753,0,0,1-3.7,2.118,15.273,15.273,0,0,1-4.2.725,1.823,1.823,0,0,0-1.042.326,1.532,1.532,0,0,1-.709.416c-.79.152-1.587.277-2.369.463-.408.1-.781.341-1.189.444-1.094.277-2.2.528-3.3.762-.947.2-1.9.358-2.852.55-.762.154-1.521.33-2.28.5-.513.114-1.038.192-1.536.353a15.4,15.4,0,0,1-4.942.972,6.219,6.219,0,0,0-1.246.114,18.714,18.714,0,0,0-2.33.586,11.3,11.3,0,0,1-2.753.427c-1.479.1-2.964.117-4.447.155a1.837,1.837,0,0,1-.547-.124,3.921,3.921,0,0,1-1.837-1.341A8.892,8.892,0,0,0,28.556,64.5a6.088,6.088,0,0,0-1.3-.693,34.569,34.569,0,0,0-5.328-2.076,11.375,11.375,0,0,0-3.585-.474,1.2,1.2,0,0,1-.258-.051l.205-.163a18.23,18.23,0,0,0-2.389.018A7.646,7.646,0,0,0,11.792,62.8a7.283,7.283,0,0,0-1.565,1.568,36.886,36.886,0,0,0-2.281,4.391c-.758,1.776-1.383,3.615-1.981,5.453a20.933,20.933,0,0,0-.479,2.556c-.113.592-.259,1.178-.377,1.77A26.881,26.881,0,0,1,3.8,83.488a5.74,5.74,0,0,0-.36,1.575,15.3,15.3,0,0,1-.617,3.413c-.508,1.506-1.039,3.005-2.669,3.709a1.023,1.023,0,0,0-.156.1v.381c.051.1.156.218.142.312-.051.341.127.465.41.567a1.907,1.907,0,0,0,2.03-.458,10.8,10.8,0,0,0,3.43-5.253c.8-2.958,1.627-5.915,2.266-8.911.5-2.353,1.2-4.642,1.862-6.946.122-.422.269-.837.383-1.262a7.949,7.949,0,0,1,2.606-4.5,3.471,3.471,0,0,1,1.965-.766,6.093,6.093,0,0,1,3.272.757,10.513,10.513,0,0,1,2.973,2.551,2.453,2.453,0,0,0,1.766,1.087c-.072.154-.159.328-.237.506a2.386,2.386,0,0,1-.23.539c-.268.336-.569.648-.868.959A9.949,9.949,0,0,0,19.9,74.463a10.12,10.12,0,0,0-.917,4.1A15.786,15.786,0,0,1,18.671,82a16.156,16.156,0,0,0-.439,1.779c-.108.826-.091,1.666-.173,2.5-.093.941-.234,1.878-.361,2.816a15.284,15.284,0,0,0-.231,1.643c-.034,1.358-.033,2.717-.006,4.075a26.342,26.342,0,0,0,.746,6.152,8.8,8.8,0,0,0,2.172,4.445c.174.166.25.384-.12.457a.733.733,0,0,0-.243.154,8.384,8.384,0,0,1-1.557,1.087,1.277,1.277,0,0,0-.692.763c-.333.677-.62,1.38-.988,2.037-.534.959-1.137,1.879-1.683,2.831a9.69,9.69,0,0,1-3.03,3.545,28.9,28.9,0,0,0-2.739,2.03,2.927,2.927,0,0,0-.557,4.206c.278.414.724.725.776,1.278,0,.029.048.054.074.081.2.212.411.418.605.635a22.115,22.115,0,0,1,1.738,2,20.6,20.6,0,0,1,1.447,2.551c.411.82.675,1.7,1.834,1.8a1.559,1.559,0,0,0,1.855-.963c.019-.044.038-.088.043-.1-.151-.257-.625-.149-.583-.638.638.047,1.251.053,1.849.147a9.137,9.137,0,0,1,1.933.457,3.661,3.661,0,0,0,1.7.245c.34-.03.8.1.94-.431.014-.051.249-.072.371-.052a.678.678,0,0,1,.285.181,1.557,1.557,0,0,0,1.711.142.61.61,0,0,0,.321-.38,2.568,2.568,0,0,0-1.019-2.366c-.354-.211-.714-.411-1.082-.6-.486-.244-.982-.466-1.474-.7-.159-.075-.322-.143-.478-.224-.379-.2-.755-.4-1.132-.6-.753-.4-1.628-.4-2.411-.789a7.989,7.989,0,0,1-1.99-1.471.527.527,0,0,1-.04-.8,9.327,9.327,0,0,1,.657-.926,13.659,13.659,0,0,1,1.386-1.216c.293-.226.669-.341.971-.559.881-.638,1.763-1.278,2.609-1.96a27.572,27.572,0,0,0,3.579-3c.648-.732,1.294-1.468,1.984-2.158,1.373-1.374,2.773-2.72,4.169-4.07.335-.324.505-.313.808.045.169.2.274.455.439.659a4.381,4.381,0,0,0,2.443,1.542c.116.028.3.091.318.17.166.654.3,1.315.443,1.975.007.031-.02.072-.038.106a3.937,3.937,0,0,0-.373,2.213c.069.778.176,1.552.271,2.327q.06.487.135.972c.142.932.3,1.862.429,2.8.071.513.064,1.038.151,1.548a6.963,6.963,0,0,1,.025,2.635,9.72,9.72,0,0,1-.691,2.907,6.707,6.707,0,0,0-.5,1.649.548.548,0,0,0,.1.461,5.973,5.973,0,0,0,.988.68c1.094.594,2.219,1.133,3.3,1.753a7.379,7.379,0,0,0,3.107.967c.527.044,1.062-.02,1.593,0,2.335.064,4.669.153,7.005.2a6.6,6.6,0,0,0,1.534-.189c.316-.07.743-.049.83-.529.007-.039.152-.077.231-.074a5.191,5.191,0,0,0,.872.061c1.025-.13,2.046-.292,3.065-.463.068-.011.164-.2.151-.293a1.229,1.229,0,0,0-.836-.988c-.572-.23-1.143-.46-1.718-.682a14.8,14.8,0,0,0-3.255-.93,21.747,21.747,0,0,1-2.559-.461,17.787,17.787,0,0,0-4.212-.443,3.281,3.281,0,0,1-1.937-.55,1.135,1.135,0,0,1-.393-.565,3.106,3.106,0,0,1,.268-1.877c.238-.688.6-1.337.8-2.035.448-1.6.8-3.218,1.243-4.817a10.641,10.641,0,0,0,.444-3.4c-.041-.76-.088-1.52-.152-2.278a12.97,12.97,0,0,1,.683-3.658,15.823,15.823,0,0,1,.793-2.113,1.835,1.835,0,0,0,.1-1.33,7.416,7.416,0,0,1-.436-2.519,16.391,16.391,0,0,0-.237-2.412,4.459,4.459,0,0,0-1.151-2.342,2.335,2.335,0,0,1-.743-1.488c-.005-.061-.008-.169-.034-.176-.359-.1-.329-.434-.418-.69-.359-1.042-.748-2.076-1.058-3.133a27.426,27.426,0,0,0-.66-2.7l-.027-.069c.649.051,1.3.046,1.948.1a9.847,9.847,0,0,1,1.73.477,9.793,9.793,0,0,1,1.69,1.018l-.094-.072a3.987,3.987,0,0,0,.47.3,19.64,19.64,0,0,0,2.673,1.771,7.408,7.408,0,0,0,2.376.688,3.2,3.2,0,0,1,1.994.871,1.276,1.276,0,0,0,.7.288c.411.059.837.018,1.25.074a14.015,14.015,0,0,0,1.927.309,5.6,5.6,0,0,1,1.716.292,1.445,1.445,0,0,0,.491.015c.757-.045,1.514-.124,2.27-.136a2.193,2.193,0,0,1,1.356.422c-.062.458-.129.839-.162,1.223-.064.756-.068,1.519-.175,2.267-.084.581-.3,1.139-.438,1.714-.164.71-.308,1.425-.447,2.14-.189.975-.393,1.948-.536,2.93a2.01,2.01,0,0,1-.262,1.038,1.107,1.107,0,0,0-.131.5c-.079.576-.141,1.153-.218,1.73a21.013,21.013,0,0,0-.3,2.286,18.761,18.761,0,0,1-1.149,5.485c-.32.965-.848,1.864-1.132,2.836-.432,1.481-.688,3.014-1.106,4.5a7.064,7.064,0,0,0,.027,2.116.686.686,0,0,0,.159.333,2,2,0,0,0,1.717.865c1.215.023,2.426.106,3.638.217.831.076,1.67.066,2.506.075a1.5,1.5,0,0,0,.629-.116,1.768,1.768,0,0,1,1.662.1c.459.241,1.077-.02,1.1-.374l-.594-.439.673-.2c-.107-.234-.206-.473-.325-.7-.045-.086-.141-.144-.207-.222a5.143,5.143,0,0,0-2.222-1.3,2.717,2.717,0,0,0-1.278-.2,5.087,5.087,0,0,1-1.477-.213,3.3,3.3,0,0,1-.851-.3.794.794,0,0,1-.415-1.14c.262-.675.515-1.358.829-2.01.712-1.487,1.489-2.943,2.184-4.438.838-1.8,1.629-3.631,2.413-5.46a10.609,10.609,0,0,0,.464-1.548c.133-.522.179-1.07.351-1.577.644-1.892,1.344-3.765,1.983-5.658.28-.83.464-1.692.692-2.539l.114-.018a2.56,2.56,0,0,1,.332.607,8.154,8.154,0,0,1,.163,1.186c.062.732.086,1.467.164,2.2a2.348,2.348,0,0,0,.26.923,5.754,5.754,0,0,1,.855,1.911c.056.322.146.637.214.956a18.785,18.785,0,0,1,.465,2.319,3.757,3.757,0,0,0,.548,1.663,1.248,1.248,0,0,1,.161.461c.161,1.21.307,2.423.465,3.634a3.056,3.056,0,0,0,.11.393c.268.978.591,1.946.784,2.938a12.708,12.708,0,0,0,.52,2.544,2.915,2.915,0,0,1,.137,1.562,1.664,1.664,0,0,0,.262,1.539,2.27,2.27,0,0,1,.481.993c.326,1.355.6,2.723.909,4.083.141.623.3,1.242.481,1.856a.588.588,0,0,0,.554.428c1.311.176,2.621.362,3.922.6a2.222,2.222,0,0,1,1.594.826h.381c.417-.076.833-.157,1.251-.228a7.535,7.535,0,0,0,1.478-.262,1.31,1.31,0,0,1,.888-.094c.361.1.5-.013.409-.365a2.069,2.069,0,0,0-.371-.576c-.034-.048-.127-.078-.13-.121-.027-.43-.4-.554-.665-.772s-.59-.4-.834-.653a8.232,8.232,0,0,0-3.569-1.964,2.024,2.024,0,0,1-1.348-1.577c-.1-1.938-.261-3.879-.248-5.817.022-3.16.161-6.32.256-9.479.018-.6.057-1.191.1-1.786.086-1.238.222-2.473.257-3.713.024-.858-.095-1.72-.136-2.581-.049-1.027-.093-2.053-.124-3.081a15.6,15.6,0,0,1,.192-4.241c.405-1.645.882-3.272,1.337-4.9a16.368,16.368,0,0,0,.667-2.663c.129-1.213.357-2.416.564-3.62.171-.99.4-1.97.556-2.963.155-1.022.26-2.053.357-3.082.064-.686.09-1.377.106-2.067.018-.806-.069-1.622.027-2.418a1.955,1.955,0,0,1,1.69-1.572c.619,0,.714-.1.732-.742l-.394-.15,1.194-.369-.028-.079-.657-.1.01-.108h.936a5.483,5.483,0,0,1,.007-.621c.011-.093.08-.235.15-.254.364-.1.737-.162,1.1-.246.091-.021.228-.053.254-.115.119-.3.362-.273.6-.262a1.4,1.4,0,0,0,1.1-.4l-.882-.08c.231-.148.423-.262.6-.39a5.355,5.355,0,0,1,4.729-.949,2.982,2.982,0,0,0,2.583-.473,2.024,2.024,0,0,0,.378-.25,1.878,1.878,0,0,0,.641-2.193.58.58,0,0,1,.034-.6,2.391,2.391,0,0,0,.189-2.074.822.822,0,0,1,.014-.536,4.638,4.638,0,0,1,.38-.673v-.381A2.421,2.421,0,0,0,101.576,60.285ZM39.767,83.991c0-.02-.008-.041-.012-.061l.09-.009Z" transform="translate(0 -48.838)" fill="#fff"/>
</svg>
